<?xml version="1.0" standalone="no"?>
<!DOCTYPE svg PUBLIC "-//W3C//DTD SVG 20010904//EN"
 "http://www.w3.org/TR/2001/REC-SVG-20010904/DTD/svg10.dtd">
<svg version="1.0" xmlns="http://www.w3.org/2000/svg"
 width="25.000000pt" height="25.000000pt" viewBox="0 0 893.000000 1280.000000"
 preserveAspectRatio="xMidYMid meet">
<metadata>
Created by potrace 1.15, written by Peter Selinger 2001-2017
</metadata>
<g transform="translate(0.000000,1280.000000) scale(0.100000,-0.100000)"
fill="#000000" stroke="none">
<path d="M3664 12370 c-165 -23 -400 -136 -517 -249 -47 -45 -49 -46 -115 -46
-53 0 -79 -6 -122 -27 -134 -66 -289 -256 -345 -422 -31 -95 -55 -275 -56
-416 0 -121 3 -146 30 -241 79 -278 212 -524 360 -669 129 -126 441 -356 516
-380 56 -18 56 -18 43 -48 -33 -80 -107 -94 -321 -63 -274 41 -373 20 -482
-101 -26 -29 -66 -92 -90 -142 -69 -143 -83 -216 -96 -497 -14 -291 -8 -475
20 -624 12 -60 37 -213 56 -340 34 -224 72 -401 135 -635 46 -172 64 -222 177
-500 l105 -255 -12 -130 c-28 -327 -55 -438 -160 -650 -57 -115 -84 -181 -95
-235 -16 -80 -69 -426 -81 -524 -5 -42 -25 -98 -71 -195 -120 -251 -191 -416
-231 -536 -87 -261 -251 -658 -347 -840 -145 -276 -220 -499 -299 -890 -79
-387 -120 -524 -254 -840 -56 -132 -97 -212 -154 -298 -43 -64 -93 -148 -112
-185 -41 -81 -81 -120 -206 -202 -122 -80 -344 -246 -438 -328 -40 -35 -98
-76 -130 -92 -31 -17 -80 -49 -108 -72 -50 -41 -220 -229 -252 -276 -22 -33
-10 -105 34 -207 44 -103 81 -139 186 -181 103 -41 200 -40 317 5 46 17 147
47 225 66 77 20 168 49 202 65 100 49 195 135 305 280 l27 35 -18 -75 c-24
-99 -18 -105 93 -105 114 0 122 6 176 146 51 134 136 307 180 366 19 27 48 49
78 63 26 12 61 33 77 48 26 25 96 124 96 136 0 3 -12 12 -28 20 l-27 14 1 244
c1 261 6 298 61 437 42 106 257 412 515 733 242 300 308 416 516 903 134 313
207 517 247 687 62 265 109 381 190 467 23 25 61 74 82 109 l40 63 12 -63 c19
-99 33 -138 55 -156 12 -9 34 -44 50 -77 35 -75 101 -168 158 -222 56 -54 210
-164 362 -259 140 -88 217 -160 388 -359 66 -77 152 -169 191 -204 239 -211
835 -609 1220 -813 194 -104 265 -148 402 -252 102 -78 405 -338 517 -445 65
-62 68 -65 102 -175 50 -158 61 -170 232 -272 155 -92 176 -113 300 -289 55
-80 219 -247 287 -294 116 -79 286 -115 552 -116 150 0 164 5 255 89 30 29 88
78 129 110 80 64 131 134 131 179 0 51 -52 86 -309 207 -211 100 -244 119
-265 151 -28 41 -148 141 -251 208 -38 25 -137 97 -220 161 -82 64 -217 165
-299 225 -109 81 -175 138 -245 215 -181 197 -443 520 -555 682 -89 130 -236
285 -804 852 l-480 479 128 161 c178 225 240 314 295 425 46 90 52 99 112 136
87 54 132 104 192 210 74 130 78 149 51 270 -36 159 -51 187 -139 254 -133
101 -279 278 -311 377 -10 30 -9 38 5 54 15 16 17 37 13 142 -5 160 -14 179
-124 259 l-84 61 6 48 c9 70 -9 114 -66 159 -27 21 -69 47 -94 57 -36 15 -44
23 -40 37 4 13 -12 37 -55 82 -68 71 -73 90 -46 179 20 65 20 150 0 166 -21
17 -20 22 20 84 19 30 74 121 121 203 48 81 121 198 164 259 43 60 89 133 103
160 63 124 121 332 168 604 44 255 20 499 -69 689 -50 108 -207 236 -313 256
l-36 7 -7 85 c-15 180 -79 362 -144 411 -85 63 -185 192 -264 338 l-42 79 -7
202 c-6 145 -12 209 -22 230 -8 15 -58 82 -112 148 -128 160 -193 258 -211
325 -77 280 -128 379 -290 564 -221 253 -494 381 -740 346z"/>
</g>
</svg>
